<svg width="128" height="128" viewBox="0 0 128 128" fill="none" xmlns="http://www.w3.org/2000/svg">
<path d="M21.3334 101.333H37.3334V112C37.3334 113.92 38.3467 115.68 40.0534 116.64C40.8691 117.099 41.7912 117.336 42.7271 117.326C43.6631 117.317 44.5802 117.062 45.3867 116.587L70.7734 101.333H106.613C112.48 101.333 117.28 96.5333 117.28 90.6667V26.6667C117.28 20.8 112.48 16 106.613 16H21.3334C15.4667 16 10.6667 20.8 10.6667 26.6667V90.6667C10.6667 96.5333 15.4667 101.333 21.3334 101.333ZM21.3334 26.6667H106.667V90.6667H69.3334C68.3734 90.6667 67.4134 90.9333 66.6134 91.4133L48 102.56V96C48 93.0667 45.6 90.6667 42.6667 90.6667H21.3334V26.6667Z" fill="#F9A51A"/>
<path d="M51.7867 78.4522L64 66.1856L76.2133 78.4522L83.7867 70.8789L71.52 58.6656L83.7867 46.4522L76.2133 38.8789L64 51.1456L51.7867 38.8789L44.2133 46.4522L56.48 58.6656L44.2133 70.8789L51.7867 78.4522Z" fill="#F9A51A"/>
</svg>
