<svg width="48" height="49" viewBox="0 0 48 49" fill="none" xmlns="http://www.w3.org/2000/svg">
<path d="M36.3199 6.84715C35.5999 5.60715 34.2799 4.82715 32.8399 4.82715H15.1599C13.7199 4.82715 12.3999 5.60715 11.6799 6.84715L4.93988 18.6471C4.11988 20.0671 4.27988 21.8871 5.31988 23.1671L20.8999 42.2071C21.6599 43.1471 22.7999 43.6671 23.9999 43.6671C25.1999 43.6671 26.3399 43.1271 27.0999 42.2071L42.6799 23.1671C43.7199 21.8871 43.8799 20.0871 43.0599 18.6471L36.3199 6.84715ZM32.8399 8.82715L38.5599 18.8271H32.4199L28.8399 8.82715H32.8399ZM15.5799 22.8271L19.5799 34.2871L10.2199 22.8271H15.5799ZM28.1799 22.8271L23.9999 34.7671L19.8199 22.8271H28.1799ZM19.8399 18.8271L23.4199 8.82715H24.5999L28.1799 18.8271H19.8599H19.8399ZM32.4199 22.8271H37.7799L28.4199 34.2871L32.4199 22.8271ZM15.1599 8.82715H19.1599L15.5799 18.8271H9.43988L15.1599 8.82715Z" fill="#415464"/>
</svg>
