<?xml version="1.0" encoding="UTF-8"?> <svg xmlns="http://www.w3.org/2000/svg" width="160" height="85" viewBox="0 0 160 85" fill="none"><g clip-path="url(#clip0_1378_4870)"><path d="M140.24 71.3984C142.02 71.3984 143.48 72.8484 143.48 74.6384C143.48 76.4284 142.03 77.8784 140.24 77.8784C138.45 77.8784 137 76.4284 137 74.6384C137 72.8484 138.45 71.3984 140.24 71.3984ZM140.24 66.3984C135.69 66.3984 132 70.0884 132 74.6384C132 79.1884 135.69 82.8784 140.24 82.8784C144.79 82.8784 148.48 79.1884 148.48 74.6384C148.48 70.0884 144.79 66.3984 140.24 66.3984Z" fill="#F9A51A"></path><path d="M36.1199 71.3984C37.8999 71.3984 39.3599 72.8484 39.3599 74.6384C39.3599 76.4284 37.9099 77.8784 36.1199 77.8784C34.3299 77.8784 32.8799 76.4284 32.8799 74.6384C32.8799 72.8484 34.3299 71.3984 36.1199 71.3984ZM36.1199 66.3984C31.5699 66.3984 27.8799 70.0884 27.8799 74.6384C27.8799 79.1884 31.5699 82.8784 36.1199 82.8784C40.6699 82.8784 44.3599 79.1884 44.3599 74.6384C44.3599 70.0884 40.6699 66.3984 36.1199 66.3984Z" fill="#F9A51A"></path><path d="M2 82.8672H158" stroke="#F9A51A" stroke-width="3" stroke-linecap="round" stroke-linejoin="round"></path><path d="M23.1702 71.1074H11.4102V78.1674H23.1702V71.1074Z" stroke="#F9A51A" stroke-width="3" stroke-miterlimit="10"></path><path d="M106.12 71.1074H49.0601V78.1674H106.12V71.1074Z" stroke="#F9A51A" stroke-width="3" stroke-miterlimit="10"></path><path d="M106.12 12.8672H2V64.0472H106.12V12.8672Z" stroke="#F9A51A" stroke-width="3" stroke-miterlimit="10"></path><path d="M115.53 68.748V43.828C115.53 42.908 116.23 42.168 117.08 42.168H128.7C131.99 42.168 139.05 52.288 139.05 52.288H115.52" stroke="#F9A51A" stroke-width="3" stroke-miterlimit="10"></path><path d="M130.79 38.1688C127.88 29.9488 120.04 24.0488 110.82 24.0488V38.1688H130.79Z" stroke="#F9A51A" stroke-width="3" stroke-miterlimit="10"></path><path d="M153.18 56.9882L143.77 52.2782C143.77 52.2782 134.36 38.1582 129.65 38.1582H110.83V75.9382C110.83 77.1682 111.82 78.1582 113.05 78.1582H130.26C129.87 77.0582 129.66 75.8682 129.66 74.6282C129.66 68.7782 134.4 64.0382 140.25 64.0382C146.1 64.0382 150.84 68.7782 150.84 74.6282C150.84 75.8682 150.63 77.0582 150.24 78.1582H155.8C157.03 78.1582 158.02 77.1682 158.02 75.9382V68.7482C158.02 66.3982 157.9 59.3382 153.2 56.9882H153.18Z" stroke="#F9A51A" stroke-width="3" stroke-miterlimit="10"></path></g><defs><clipPath id="clip0_1378_4870"><rect width="160" height="84" fill="white" transform="translate(0 0.828125)"></rect></clipPath></defs></svg> 