<?xml version="1.0" encoding="UTF-8"?> <svg xmlns="http://www.w3.org/2000/svg" width="96" height="97" viewBox="0 0 96 97" fill="none"><rect x="2" y="2.82812" width="92" height="92" rx="46" stroke="#F9A51A" stroke-width="4"></rect><path d="M53.688 64.8281H37C34.242 64.8281 32 62.5861 32 59.8281C32 57.0701 34.242 54.8281 37 54.8281H51C54.86 54.8281 58 51.6881 58 47.8281C58 43.9681 54.86 40.8281 51 40.8281H41.278C40.5435 42.2679 39.6339 43.6114 38.57 44.8281H51C52.654 44.8281 54 46.1741 54 47.8281C54 49.4821 52.654 50.8281 51 50.8281H37C32.038 50.8281 28 54.8661 28 59.8281C28 64.7901 32.038 68.8281 37 68.8281H56.186C55.2046 67.5937 54.3666 66.2517 53.688 64.8281ZM34 28.8281C30.692 28.8281 28 31.5201 28 34.8281C28 41.2041 34 44.8281 34 44.8281C34 44.8281 40 41.2021 40 34.8281C40 31.5201 37.308 28.8281 34 28.8281ZM34 37.8281C33.6059 37.828 33.2157 37.7502 32.8516 37.5993C32.4876 37.4484 32.1568 37.2272 31.8783 36.9484C31.5997 36.6697 31.3787 36.3388 31.2281 35.9746C31.0774 35.6105 30.9999 35.2202 31 34.8261C31.0001 34.432 31.0779 34.0418 31.2288 33.6778C31.3798 33.3137 31.6009 32.983 31.8797 32.7044C32.1584 32.4258 32.4893 32.2049 32.8535 32.0542C33.2176 31.9035 33.6079 31.826 34.002 31.8261C34.7979 31.8264 35.5611 32.1428 36.1237 32.7058C36.6863 33.2688 37.0023 34.0322 37.002 34.8281C37.0017 35.624 36.6853 36.3873 36.1223 36.9499C35.5593 37.5125 34.7959 37.8284 34 37.8281Z" fill="#F9A51A"></path><path d="M62 52.8281C58.692 52.8281 56 55.5201 56 58.8281C56 65.2041 62 68.8281 62 68.8281C62 68.8281 68 65.2021 68 58.8281C68 55.5201 65.308 52.8281 62 52.8281ZM62 61.8281C61.6059 61.828 61.2157 61.7502 60.8516 61.5993C60.4876 61.4484 60.1568 61.2272 59.8783 60.9484C59.5997 60.6697 59.3787 60.3388 59.2281 59.9746C59.0774 59.6105 58.9999 59.2202 59 58.8261C59.0001 58.432 59.0779 58.0418 59.2288 57.6778C59.3798 57.3137 59.6009 56.983 59.8797 56.7044C60.1584 56.4258 60.4893 56.2049 60.8535 56.0542C61.2176 55.9035 61.6079 55.826 62.002 55.8261C62.7979 55.8264 63.5611 56.1428 64.1237 56.7058C64.6863 57.2688 65.0023 58.0322 65.002 58.8281C65.0017 59.624 64.6853 60.3873 64.1223 60.9499C63.5593 61.5125 62.7959 61.8284 62 61.8281Z" fill="#F9A51A"></path></svg> 